<?xml version="1.0" standalone="no"?>
<!DOCTYPE svg PUBLIC "-//W3C//DTD SVG 20010904//EN"
 "http://www.w3.org/TR/2001/REC-SVG-20010904/DTD/svg10.dtd">
<svg version="1.0" xmlns="http://www.w3.org/2000/svg"
 width="421.000000pt" height="599.000000pt" viewBox="0 0 421.000000 599.000000"
 preserveAspectRatio="xMidYMid meet">

<g transform="translate(0.000000,599.000000) scale(0.100000,-0.100000)"
fill="#000000" stroke="none">
<path d="M2316 5969 c3 -6 15 -9 25 -6 11 3 17 2 14 -3 -3 -4 6 -11 20 -14 41
-10 225 -26 290 -25 33 1 74 -2 90 -5 23 -5 25 -4 10 3 -11 5 -72 21 -135 35
-123 28 -328 38 -314 15z"/>
<path d="M3200 5765 c0 -2 24 -23 53 -46 50 -39 87 -82 56 -64 -8 5 -5 -1 5
-13 11 -12 25 -22 33 -22 8 0 26 -11 41 -25 75 -68 110 -96 142 -111 19 -9 49
-27 67 -40 17 -13 36 -24 41 -24 5 0 15 -6 22 -14 6 -8 24 -16 38 -18 15 -2
26 -8 25 -15 -1 -6 11 -17 27 -25 25 -11 27 -14 12 -20 -15 -6 -14 -8 6 -14
14 -4 30 -23 43 -50 11 -24 24 -44 29 -44 6 0 10 -8 10 -17 0 -10 7 -26 15
-36 7 -11 12 -24 9 -31 -2 -6 6 -16 18 -21 13 -6 24 -21 26 -35 2 -14 13 -35
25 -48 12 -13 21 -24 19 -25 -4 -2 7 -37 19 -59 5 -10 9 -23 9 -30 0 -17 52
-118 60 -118 4 0 14 -17 22 -37 9 -21 24 -57 34 -81 9 -23 17 -56 17 -72 0
-16 3 -27 7 -25 3 2 16 -55 29 -128 38 -225 38 -226 40 -46 1 139 -2 175 -18
225 -11 32 -29 93 -40 134 -27 103 -57 179 -79 204 -24 27 -90 129 -99 153 -4
10 -26 43 -50 73 -24 30 -43 59 -43 64 0 4 -12 23 -27 42 -16 18 -38 46 -50
62 -12 16 -38 37 -56 46 -19 8 -40 23 -47 31 -8 9 -41 37 -74 62 -34 25 -73
61 -89 79 -15 18 -37 36 -49 40 -12 4 -30 17 -40 30 -36 45 -238 138 -238 109z"/>
<path d="M765 5508 c-84 -47 -303 -256 -373 -353 -52 -74 -139 -255 -148 -310
-8 -48 -9 -134 -4 -220 1 -30 4 -35 9 -20 7 18 8 17 13 -6 2 -14 1 -34 -3 -45
-7 -17 -8 -17 -8 5 -1 20 -3 21 -16 11 -8 -7 -15 -24 -15 -39 0 -14 -18 -87
-41 -161 -22 -74 -54 -202 -69 -285 -26 -132 -29 -173 -30 -343 0 -106 -4
-200 -9 -210 -5 -9 -21 -68 -36 -130 l-27 -114 4 -441 c4 -377 6 -449 20 -487
9 -25 26 -83 38 -130 26 -107 95 -331 120 -390 10 -25 48 -90 85 -145 36 -55
70 -116 75 -136 6 -20 19 -44 30 -54 12 -10 29 -37 39 -59 10 -23 47 -78 82
-123 35 -45 81 -106 102 -135 20 -29 86 -118 145 -197 135 -181 192 -263 192
-276 0 -6 17 -34 38 -62 20 -28 57 -80 82 -115 25 -35 83 -97 130 -137 47 -40
98 -84 113 -98 16 -14 56 -39 90 -55 34 -16 76 -40 92 -52 44 -33 104 -62 155
-76 25 -6 65 -18 90 -26 25 -8 56 -14 68 -14 13 0 38 -6 55 -14 71 -30 320
-69 405 -63 34 3 71 11 81 18 10 8 53 42 96 77 43 34 83 62 90 62 6 0 22 11
35 25 13 14 27 25 31 25 3 0 47 27 95 60 49 33 99 60 112 60 46 0 142 33 147
51 3 10 56 73 118 141 107 117 166 176 286 284 50 46 111 143 111 178 0 18 34
78 70 126 15 19 33 53 41 75 7 22 27 58 44 80 17 22 41 65 54 95 38 91 114
240 138 272 11 15 36 101 53 178 6 30 18 75 26 100 8 25 14 53 14 63 0 10 13
51 29 90 37 94 86 268 101 362 5 28 15 68 24 90 9 25 15 74 16 131 0 57 7 118
20 165 11 41 20 87 20 102 0 16 9 63 20 106 11 42 22 107 25 144 3 38 12 92
19 120 10 38 16 169 21 462 4 226 5 408 2 405 -10 -10 -37 -132 -31 -141 3 -6
-4 -30 -15 -54 -12 -25 -21 -58 -21 -74 0 -17 -4 -33 -10 -36 -5 -3 -10 -21
-10 -39 0 -17 -4 -36 -9 -42 -21 -20 -34 -182 -33 -381 1 -83 -2 -145 -8 -148
-6 -3 -10 -16 -10 -29 0 -12 -7 -31 -15 -42 -17 -22 -19 -62 -5 -98 6 -16 6
-26 0 -26 -13 0 -40 -54 -40 -80 0 -11 -6 -20 -14 -20 -9 0 -12 7 -9 19 3 10
1 21 -5 25 -10 6 -52 -29 -52 -45 0 -6 -15 -9 -32 -7 -23 2 -33 -1 -33 -11 0
-8 -6 -16 -13 -18 -6 -3 -12 0 -12 5 0 19 -44 22 -58 5 -7 -10 -22 -18 -35
-18 -12 -1 -33 -7 -46 -14 -13 -8 -37 -10 -56 -7 -22 5 -35 2 -38 -6 -4 -10
-9 -8 -17 5 -6 9 -23 17 -39 17 -36 0 -45 10 -24 25 14 10 10 12 -27 12 -33 0
-47 5 -61 24 -16 21 -19 22 -43 10 -23 -13 -28 -12 -46 4 -11 10 -20 23 -20
29 0 11 -63 12 -105 2 -11 -3 -27 -1 -35 4 -8 5 -11 10 -6 10 5 0 3 7 -4 15
-7 9 -29 15 -51 15 -22 0 -39 3 -39 8 0 4 -25 18 -55 32 -29 14 -56 33 -58 43
-3 9 -15 17 -26 17 -12 0 -21 4 -21 9 0 5 -16 12 -36 15 -29 6 -34 10 -29 27
7 21 -10 27 -19 7 -3 -7 -3 -3 0 10 3 14 1 22 -8 23 -64 2 -144 12 -148 17 -3
4 -14 14 -24 22 -17 14 -18 13 -12 -6 5 -16 0 -23 -19 -32 -33 -15 -32 -27 10
-65 19 -17 35 -40 35 -50 0 -10 4 -16 9 -13 10 7 21 -27 21 -70 0 -20 9 -39
26 -55 14 -13 35 -42 46 -64 12 -22 34 -59 50 -82 16 -24 26 -43 23 -43 -4 0
0 -6 8 -14 35 -35 157 -204 157 -217 0 -8 5 -20 11 -26 6 -6 9 -23 7 -39 -5
-44 -89 -88 -192 -100 -22 -3 -43 -7 -46 -9 -22 -14 -164 -25 -317 -27 -98 -1
-209 -5 -248 -9 -109 -11 -105 12 15 100 77 57 171 149 212 209 36 52 68 142
68 191 0 20 7 61 15 91 19 71 19 77 -3 50 -23 -29 -98 -29 -217 -1 -75 18 -90
19 -123 7 -100 -36 -192 -59 -242 -61 -30 -1 -57 -3 -60 -5 -20 -10 -101 0
-115 14 -9 9 -25 16 -35 16 -26 0 -158 78 -171 101 -5 10 -16 19 -24 19 -7 0
-15 6 -18 13 -4 11 -19 -3 -49 -47 -4 -7 -15 -6 -31 3 -14 7 -34 10 -46 6 -15
-4 -21 -2 -21 8 0 8 -7 17 -15 21 -8 3 -18 23 -21 46 -6 38 -24 57 -24 25 0
-9 -6 -12 -15 -9 -8 4 -13 10 -10 14 3 4 -2 11 -11 14 -21 8 -26 8 -21 -1 3
-5 -6 -9 -19 -9 -13 -1 -44 -11 -69 -23 -25 -12 -54 -21 -65 -21 -22 0 -60
-28 -60 -45 0 -19 -87 -95 -108 -95 -12 0 -22 -4 -22 -10 0 -5 -6 -10 -13 -10
-19 0 -57 -46 -60 -73 -1 -12 -9 -27 -17 -34 -12 -10 -13 -12 -1 -13 8 0 -6
-10 -30 -23 -29 -15 -44 -30 -44 -43 0 -10 -5 -22 -12 -27 -7 -4 -10 -14 -7
-21 6 -16 -24 -36 -43 -29 -8 3 -13 -5 -13 -21 0 -18 -4 -24 -15 -20 -8 4 -15
17 -15 31 0 18 8 28 29 36 21 7 29 17 29 35 -1 18 -3 21 -10 11 -7 -11 -11
-11 -15 -1 -2 6 -16 12 -29 12 -14 0 -27 7 -30 15 -4 8 -12 15 -20 15 -10 0
-13 7 -8 25 4 16 2 25 -5 25 -20 0 -91 50 -88 62 1 6 -7 14 -19 17 -11 3 -36
23 -55 44 -78 88 -115 120 -139 122 -28 2 -60 30 -60 52 0 12 -14 35 -30 51
-20 21 -30 40 -30 62 0 17 -6 33 -13 35 -9 4 -10 30 -5 113 5 59 9 139 10 177
2 39 6 75 9 80 4 6 7 37 8 70 1 33 4 89 6 125 3 36 7 104 10 152 6 92 25 163
43 163 6 0 14 3 18 8 4 4 -1 7 -12 7 -40 0 8 18 52 18 25 1 48 4 53 6 5 3 33
-12 64 -34 30 -22 58 -40 61 -40 4 0 26 -10 51 -21 27 -13 56 -19 72 -16 20 4
36 -2 56 -19 16 -13 37 -24 48 -24 10 0 19 -4 19 -9 0 -5 9 -11 20 -14 11 -3
20 -1 20 4 0 5 7 9 15 9 9 0 12 -6 9 -15 -4 -10 0 -15 16 -15 11 0 18 5 15 10
-7 11 15 13 39 4 9 -3 13 -11 10 -16 -4 -6 0 -14 7 -19 20 -13 29 -11 29 6 0
8 3 15 8 16 4 0 18 2 32 4 14 1 31 -2 38 -8 9 -7 11 -6 6 7 -4 11 -1 16 10 16
9 0 16 3 16 8 0 8 178 6 227 -3 22 -4 38 -16 50 -35 9 -17 20 -30 23 -30 4 0
7 -7 7 -15 0 -9 -6 -14 -14 -11 -7 3 -13 -1 -13 -8 0 -17 30 -30 42 -18 12 12
55 3 69 -14 23 -28 148 -5 176 32 7 9 17 13 24 8 8 -5 10 -3 4 6 -4 7 -2 15 4
20 22 13 101 204 109 261 5 31 4 96 0 144 -9 88 -9 89 -56 136 -26 27 -51 53
-57 59 -5 5 -23 23 -40 38 -16 15 -37 38 -45 51 -15 24 -27 37 -72 77 -13 12
-50 27 -83 34 -33 7 -63 17 -68 24 -5 7 -11 5 -18 -7 -10 -17 -13 -17 -34 -3
-13 9 -30 13 -38 10 -9 -3 -21 4 -30 16 -9 13 -17 17 -22 11 -10 -17 -25 -13
-19 4 5 11 -1 15 -19 15 -14 0 -29 5 -32 10 -3 6 -15 10 -26 10 -10 0 -19 5
-19 10 0 6 -12 10 -26 10 -14 0 -23 -4 -19 -10 3 -5 0 -10 -8 -10 -19 0 -30
27 -14 33 7 2 -5 8 -26 12 -26 5 -41 15 -47 29 -8 21 -16 26 -93 60 -47 20
-116 21 -163 1 -19 -8 -38 -14 -42 -12 -12 3 -122 -83 -122 -96 -1 -17 -50
-71 -58 -63 -3 4 -1 15 6 26 8 14 8 20 0 22 -17 6 -19 38 -2 38 20 0 41 38 59
108 11 43 14 72 8 90 -10 29 1 71 29 114 23 34 181 195 238 241 46 37 51 45
15 25z m-364 -662 c9 -19 8 -27 -8 -43 -10 -10 -32 -49 -48 -86 -15 -37 -32
-67 -36 -67 -5 0 -6 7 -3 15 8 21 -13 19 -25 -2 -9 -17 -10 -17 -17 1 -5 12
-2 22 9 28 10 5 17 18 17 29 0 12 6 33 14 47 8 15 19 40 25 55 6 15 15 26 20
23 5 -3 11 1 15 9 8 22 25 18 37 -9z m255 -99 c12 -7 51 -39 88 -73 56 -52 67
-66 68 -96 1 -39 -8 -61 -23 -52 -6 3 -85 7 -176 8 -141 3 -168 5 -178 19 -7
10 -17 17 -24 17 -16 0 -14 5 12 48 13 20 26 44 29 52 9 26 87 73 131 81 23 3
44 7 47 7 3 1 15 -4 26 -11z m-379 -149 c-3 -8 -6 -5 -6 6 -1 11 2 17 5 13 3
-3 4 -12 1 -19z m779 -305 c47 -15 64 -28 64 -47 0 -5 -18 -6 -40 -3 -27 3
-38 2 -33 -5 3 -7 1 -8 -6 -4 -7 4 -20 5 -29 1 -21 -9 -54 -11 -67 -4 -6 3
-46 2 -90 -2 -84 -8 -152 -3 -161 12 -3 5 -10 7 -15 4 -5 -4 -9 -2 -9 4 0 5
14 12 30 16 18 4 27 11 23 18 -4 7 0 8 12 4 9 -4 23 -3 29 2 27 22 230 25 292
4z m-81 -223 c3 -5 1 -10 -4 -10 -6 0 -11 5 -11 10 0 6 2 10 4 10 3 0 8 -4 11
-10z m315 -1086 c0 -3 -6 -29 -14 -57 -45 -168 -45 -279 -1 -439 31 -111 29
-154 -8 -142 -12 4 -31 7 -42 6 -34 -2 -116 26 -149 52 -49 38 -86 74 -86 85
0 6 -6 8 -13 5 -19 -7 -42 23 -30 39 13 15 27 68 24 86 -1 8 1 17 6 20 4 3 17
24 27 46 31 63 100 156 155 208 27 26 52 47 55 47 3 0 16 11 30 25 23 23 46
33 46 19z m-700 -338 c0 -3 -4 -8 -10 -11 -5 -3 -10 -1 -10 4 0 6 5 11 10 11
6 0 10 -2 10 -4z m3280 -7 c0 -7 8 -18 18 -25 14 -11 15 -13 2 -14 -9 0 -21 5
-28 12 -15 15 -16 38 -2 38 6 0 10 -5 10 -11z m-3211 -34 c13 -22 28 -35 41
-35 11 0 20 -4 20 -10 0 -5 -7 -10 -16 -10 -8 0 -12 -4 -9 -10 3 -5 15 -10 26
-10 11 0 27 -6 35 -12 32 -27 64 -63 64 -73 1 -5 9 -28 20 -50 11 -22 19 -48
20 -58 0 -9 4 -25 9 -35 6 -9 18 -42 27 -72 9 -30 27 -71 40 -90 13 -19 44
-82 70 -139 25 -57 68 -140 95 -184 27 -44 49 -88 49 -98 0 -10 4 -20 9 -23 4
-3 11 -19 14 -36 5 -25 36 -79 57 -100 3 -3 18 -24 33 -46 32 -47 53 -54 156
-53 71 0 168 16 296 47 44 11 127 23 185 26 177 11 491 9 545 -4 58 -14 112
-15 129 -2 6 5 35 15 64 22 28 6 52 17 52 23 0 7 6 5 15 -4 19 -19 95 -13 95
7 0 8 9 14 20 14 25 0 70 66 70 103 0 24 -3 27 -21 22 -13 -4 -19 -3 -16 2 4
5 0 10 -8 10 -8 0 -15 -5 -15 -11 0 -7 -3 -7 -10 0 -9 9 -13 81 -11 174 2 62
0 70 -17 71 -16 1 -16 2 1 6 25 7 23 53 -3 53 -22 0 -27 16 -8 22 7 3 4 12
-11 27 -12 12 -23 31 -24 42 -1 10 -7 19 -14 19 -28 0 -11 19 21 26 19 3 37
12 40 20 3 8 11 14 18 14 19 0 168 78 179 94 16 21 113 -37 114 -68 0 -20 25
-16 40 7 18 28 62 44 78 28 6 -6 19 -11 28 -11 9 0 22 -7 30 -16 10 -13 10
-17 -2 -25 -10 -6 -10 -9 -1 -9 6 0 12 -9 12 -20 0 -11 -4 -20 -8 -20 -18 0
-57 -43 -44 -47 23 -9 16 -21 -48 -88 -11 -12 -20 -28 -20 -38 0 -9 -5 -17
-11 -17 -8 0 -8 -5 1 -15 7 -8 10 -21 7 -28 -3 -8 3 -21 13 -30 10 -8 23 -23
29 -33 8 -15 13 -16 19 -6 7 10 13 7 26 -13 9 -14 14 -30 11 -34 -3 -5 3 -7
13 -4 16 4 17 -2 12 -58 -5 -51 -10 -64 -32 -80 -17 -13 -24 -26 -21 -38 8
-30 -44 -116 -87 -145 -22 -14 -44 -26 -50 -26 -6 0 -9 -14 -8 -30 2 -21 -4
-35 -20 -46 -16 -11 -22 -25 -22 -55 0 -28 -4 -39 -15 -39 -18 0 -19 -12 -3
-28 9 -9 8 -12 -5 -12 -30 0 -57 -34 -59 -73 -1 -21 -5 -37 -10 -37 -4 0 -8 5
-8 10 0 6 -7 10 -16 10 -13 0 -15 -7 -10 -30 5 -29 4 -31 -22 -28 -20 2 -26
-1 -24 -13 2 -13 -4 -15 -24 -11 -23 4 -25 2 -19 -17 5 -16 3 -20 -9 -15 -9 3
-16 10 -16 15 0 18 -32 8 -37 -11 -3 -11 -11 -20 -17 -20 -27 0 -66 -27 -72
-50 -3 -14 -9 -19 -11 -12 -3 6 -20 12 -38 12 -42 0 -50 12 -31 42 21 32 11
61 -25 77 -24 10 -36 11 -55 2 -32 -14 -94 -14 -94 0 0 6 -6 9 -12 6 -7 -2
-12 -11 -10 -21 2 -9 -2 -16 -8 -16 -5 0 -10 5 -10 10 0 6 -7 10 -15 10 -18 0
-19 -12 -2 -29 10 -10 9 -11 -5 -6 -9 4 -19 13 -22 21 -3 8 -15 14 -26 14 -11
0 -20 5 -20 10 0 21 -30 9 -31 -12 -1 -20 -3 -18 -15 10 -8 17 -20 32 -27 32
-7 0 -23 11 -35 25 -31 35 -50 33 -44 -6 6 -42 -19 -35 -30 9 -5 18 -15 32
-22 32 -7 0 -19 7 -26 15 -18 21 -47 19 -53 -5 -3 -11 -1 -23 4 -26 5 -3 9 0
9 5 0 6 11 11 25 11 14 0 25 -4 25 -10 0 -5 -7 -10 -15 -10 -17 0 -30 -41 -22
-70 3 -11 1 -20 -4 -20 -5 0 -9 7 -9 15 0 16 -17 19 -45 9 -9 -4 -12 -10 -7
-13 6 -3 8 -27 5 -53 -3 -26 -10 -45 -14 -42 -5 3 -7 9 -4 14 3 5 3 20 0 32
-8 30 -44 31 -74 4 -26 -24 -26 -32 -1 -39 11 -3 20 -12 20 -21 0 -9 -8 -16
-20 -16 -14 0 -20 -7 -21 -22 -1 -14 -6 -6 -14 22 -7 25 -14 41 -14 35 -1 -5
-5 -16 -10 -23 -9 -14 -14 -13 -76 21 -16 9 -42 22 -57 29 -16 7 -28 18 -28
25 0 9 -19 13 -65 13 -37 0 -65 4 -65 10 0 6 -16 10 -35 10 -19 0 -35 5 -35
11 0 6 -11 9 -24 7 -13 -1 -31 3 -40 11 -9 7 -16 11 -16 7 0 -4 -11 1 -25 10
-13 8 -29 13 -34 9 -13 -7 -53 12 -64 31 -4 8 -15 14 -22 14 -8 0 -15 5 -15
10 0 6 -18 10 -40 10 -25 0 -40 -5 -40 -12 0 -9 -2 -10 -8 -2 -4 7 -16 13 -27
15 -11 2 -27 18 -35 35 -9 17 -21 29 -28 26 -7 -2 -12 5 -12 16 0 11 -7 22
-15 26 -8 3 -15 12 -15 20 0 8 -6 19 -14 23 -8 4 -29 34 -48 65 -19 32 -38 55
-43 50 -5 -4 -5 -2 -2 4 4 6 -11 36 -33 66 -21 30 -42 67 -46 82 -3 14 -10 28
-14 31 -4 3 -6 27 -4 55 2 32 -1 54 -10 63 -8 8 -14 25 -15 38 -3 117 -48 235
-117 307 -47 49 -60 77 -63 137 -1 28 -9 63 -17 79 -10 21 -11 32 -3 36 7 5 5
9 -5 13 -18 7 -22 42 -6 52 6 4 8 11 5 16 -4 5 -1 9 4 9 20 0 11 32 -20 71
-30 38 -28 44 12 40 19 -2 34 24 38 67 2 24 29 12 50 -23z m3211 -14 c0 -5 10
-11 22 -13 19 -2 25 -12 32 -50 4 -27 12 -48 17 -48 5 0 9 -4 9 -10 0 -13 -37
-13 -45 0 -15 24 -24 -3 -10 -30 20 -39 19 -50 -5 -50 -11 0 -20 -6 -20 -13 0
-16 -51 -46 -67 -40 -7 3 -13 0 -13 -6 0 -6 7 -11 15 -11 21 0 19 -23 -6 -53
-11 -15 -23 -43 -26 -62 -5 -29 -9 -34 -24 -30 -13 4 -21 0 -26 -12 -8 -23
-53 -62 -72 -63 -8 0 -27 -13 -42 -30 -16 -16 -29 -24 -29 -17 0 6 -3 22 -6
35 -5 17 -2 22 12 23 11 0 14 3 7 5 -16 7 4 64 23 64 8 0 14 5 14 10 0 6 -5
10 -11 10 -6 0 -1 14 11 30 12 17 30 30 42 30 11 0 18 5 15 13 -5 14 31 87 43
87 5 0 6 9 3 19 -3 11 -11 17 -18 15 -9 -4 -12 6 -10 33 3 49 25 95 42 89 7
-3 13 0 13 5 0 6 9 9 20 6 14 -4 20 0 20 11 0 9 10 26 22 39 22 23 48 31 48
14z m-3562 -76 c16 -35 15 -55 -2 -55 -8 0 -16 -7 -20 -15 -7 -19 5 -19 30 0
26 20 34 19 34 -6 0 -11 4 -18 9 -15 12 8 23 -23 16 -45 -4 -11 -2 -19 5 -19
7 0 8 -6 0 -19 -14 -27 -13 -41 3 -35 19 7 15 -26 -6 -56 -19 -27 -37 -19 -20
9 9 14 7 21 -8 32 -10 7 -19 19 -19 25 0 7 -8 10 -20 7 -17 -5 -20 0 -20 29 0
19 -7 43 -15 54 -8 10 -15 31 -15 46 0 15 -5 39 -10 54 -9 24 -9 25 5 14 12
-10 16 -9 21 4 9 23 19 20 32 -9z m2160 -350 c11 15 152 16 152 0 0 -11 12
-15 53 -16 9 0 17 -4 17 -9 0 -14 -31 -28 -70 -32 -37 -3 -39 -4 -82 -42 -17
-16 -35 -22 -48 -19 -11 3 -26 0 -33 -6 -19 -15 -79 -9 -94 9 -11 13 -12 12
-13 -5 -1 -24 -52 -67 -77 -65 -51 3 -75 1 -91 -5 -9 -4 -30 -7 -47 -6 -110 5
-133 8 -162 21 -41 19 -50 57 -20 86 13 11 30 21 39 21 41 0 128 27 128 40 0
7 5 13 10 13 6 0 10 -7 10 -16 0 -12 4 -14 13 -7 23 19 72 27 167 29 58 1 95
5 98 12 2 8 9 8 23 -1 13 -8 22 -9 27 -2z m275 8 c-7 -2 -19 -2 -25 0 -7 3 -2
5 12 5 14 0 19 -2 13 -5z m938 -92 c-8 -5 -20 -7 -28 -4 -21 8 -15 13 15 13
20 0 23 -3 13 -9z m-1764 -51 c-2 -22 -6 -43 -10 -46 -6 -6 -37 19 -37 29 0 6
43 57 48 57 2 0 1 -18 -1 -40z m493 -10 c0 -5 -4 -10 -10 -10 -5 0 -10 5 -10
10 0 6 5 10 10 10 6 0 10 -4 10 -10z m1260 -74 c0 -3 -4 -8 -10 -11 -5 -3 -10
-1 -10 4 0 6 5 11 10 11 6 0 10 -2 10 -4z m-90 -87 c0 -5 -7 -9 -15 -9 -8 0
-15 7 -15 15 0 9 6 12 15 9 8 -4 15 -10 15 -15z m-260 -17 c0 -13 -12 -22 -22
-16 -10 6 -1 24 13 24 5 0 9 -4 9 -8z m40 -8 c0 -8 -5 -12 -10 -9 -6 4 -8 11
-5 16 9 14 15 11 15 -7z m73 -350 c21 -8 9 -42 -17 -47 -17 -3 -15 -5 7 -6 27
-1 36 -14 17 -26 -5 -3 -7 -12 -3 -20 3 -9 -1 -15 -11 -15 -19 0 -21 -21 -4
-38 9 -9 9 -12 0 -12 -7 0 -12 -9 -12 -21 0 -13 -4 -18 -12 -13 -7 5 -9 2 -5
-8 3 -9 0 -21 -6 -27 -6 -6 -7 -11 -1 -11 5 0 5 -3 -1 -8 -17 -12 -55 -70 -55
-84 0 -7 -17 -31 -38 -54 -47 -52 -82 -100 -82 -114 0 -6 -6 -17 -12 -24 -38
-39 -68 -77 -68 -86 0 -5 -7 -10 -15 -10 -9 0 -19 -8 -22 -17 -14 -36 -46 -63
-67 -57 -17 4 -18 3 -6 -6 13 -9 13 -12 -2 -21 -10 -5 -18 -17 -18 -25 0 -8
-4 -13 -9 -9 -5 3 -16 -3 -23 -13 -7 -11 -22 -22 -33 -25 -11 -4 -25 -17 -30
-29 -6 -13 -24 -27 -43 -32 -21 -6 -31 -14 -28 -23 3 -7 -1 -13 -9 -13 -8 0
-22 -11 -30 -24 -20 -30 -54 -40 -62 -19 -5 12 -7 12 -14 2 -4 -7 -3 -19 2
-25 7 -9 1 -11 -26 -9 -19 2 -35 0 -35 -5 0 -4 -9 -10 -20 -13 -11 -3 -19 -11
-18 -17 4 -17 -19 -24 -25 -8 -2 7 -2 3 -1 -9 2 -12 -1 -25 -8 -29 -7 -4 -8
-3 -4 4 4 7 3 12 -3 12 -6 0 -15 -9 -21 -19 -6 -13 -17 -17 -30 -14 -12 3 -20
0 -20 -7 0 -9 -4 -9 -17 1 -13 11 -17 11 -20 2 -6 -17 -40 -17 -46 0 -4 8 -6
7 -6 -3 -1 -19 -36 -50 -57 -50 -8 0 -13 -4 -10 -8 2 -4 -7 -7 -22 -6 -15 1
-27 2 -27 4 0 7 -73 6 -87 -1 -10 -5 -54 -14 -99 -20 -66 -8 -86 -7 -111 5
-23 12 -35 13 -50 5 -15 -8 -19 -8 -14 0 5 7 -4 11 -23 11 -17 0 -31 -4 -31
-8 0 -12 -150 26 -180 46 -14 9 -32 21 -41 27 -102 64 -119 84 -76 87 114 7
295 3 314 -8 18 -11 22 -11 27 3 5 12 16 15 54 11 50 -6 75 -1 67 12 -11 18
196 36 225 20 13 -7 21 -7 25 0 16 27 94 1 118 -39 15 -25 15 -25 22 23 7 45
9 48 34 41 44 -11 72 -6 89 15 11 14 31 22 57 23 41 2 55 10 106 60 16 16 33
26 39 22 5 -3 10 -1 10 5 0 20 70 95 93 100 13 4 24 16 27 30 7 37 32 70 52
70 11 0 18 8 18 20 0 11 4 20 9 20 5 0 7 8 4 18 -3 12 7 30 27 50 17 17 38 46
46 64 28 60 43 82 86 127 24 25 42 49 41 53 -2 4 2 8 7 8 6 0 10 9 10 20 0 22
76 130 92 130 5 0 7 4 4 9 -6 9 36 31 59 31 8 0 15 4 15 9 0 5 10 13 21 16 17
6 19 9 8 16 -11 7 -11 9 3 9 9 0 23 -3 31 -6z m-2752 -76 c33 -34 74 -81 92
-105 18 -23 40 -43 49 -43 9 0 23 -7 32 -15 8 -8 17 -15 20 -15 22 0 176 -194
176 -222 0 -7 11 -33 25 -57 18 -30 25 -56 23 -87 0 -24 -3 -44 -6 -44 -2 0
-13 11 -24 25 -22 28 -48 33 -48 10 0 -8 -7 -15 -15 -15 -8 0 -15 7 -15 15 0
8 -11 17 -25 21 -14 3 -25 12 -25 20 0 8 -7 14 -15 14 -8 0 -15 7 -15 15 0 8
-4 15 -10 15 -5 0 -10 7 -10 15 0 8 -6 15 -14 15 -8 0 -17 11 -20 25 -4 14
-11 25 -16 25 -6 0 -10 7 -10 15 0 8 -19 38 -43 67 -23 29 -55 79 -71 112 -16
32 -41 70 -57 84 -22 19 -29 34 -29 64 0 21 -4 38 -9 38 -11 0 -24 48 -16 60
10 16 14 13 76 -52z m-94 20 c-3 -8 -6 -5 -6 6 -1 11 2 17 5 13 3 -3 4 -12 1
-19z m1621 -356 c-11 -13 -14 -11 -19 9 -13 45 -10 53 11 29 16 -19 18 -26 8
-38z m-158 -42 c0 -5 -4 -10 -10 -10 -5 0 -10 5 -10 10 0 6 5 10 10 10 6 0 10
-4 10 -10z m584 -91 c-3 -5 -14 -9 -25 -9 -13 0 -18 -4 -13 -12 4 -7 3 -8 -4
-4 -7 4 -12 15 -12 25 0 14 6 17 30 13 16 -2 27 -8 24 -13z"/>
<path d="M3231 2154 c0 -11 3 -14 6 -6 3 7 2 16 -1 19 -3 4 -6 -2 -5 -13z"/>
<path d="M3731 2296 c-14 -17 -1 -28 19 -16 11 7 12 12 4 20 -8 8 -14 7 -23
-4z"/>
<path d="M315 2361 c-3 -5 -1 -12 5 -16 5 -3 10 1 10 9 0 18 -6 21 -15 7z"/>
<path d="M3385 1330 c-3 -5 -1 -10 4 -10 6 0 11 5 11 10 0 6 -2 10 -4 10 -3 0
-8 -4 -11 -10z"/>
<path d="M2225 390 c3 -5 8 -10 11 -10 2 0 4 5 4 10 0 6 -5 10 -11 10 -5 0 -7
-4 -4 -10z"/>
<path d="M3255 4712 c-6 -7 -28 -8 -235 -16 -52 -2 -131 -7 -175 -11 -44 -4
-95 -6 -114 -6 -40 2 -141 -26 -141 -39 0 -5 -7 -7 -15 -4 -23 9 -82 -5 -100
-23 -9 -9 -28 -17 -41 -19 -14 -1 -31 -7 -38 -13 -7 -6 -31 -8 -54 -5 -32 4
-43 2 -48 -10 -6 -17 -76 -56 -100 -56 -22 0 -45 -60 -32 -83 5 -11 8 -27 5
-37 -2 -10 2 -42 9 -71 8 -29 14 -82 14 -116 0 -70 24 -121 77 -162 118 -92
219 -141 290 -141 53 0 156 -27 169 -45 6 -8 22 -15 34 -15 13 0 31 -6 39 -14
41 -37 279 -53 401 -27 70 15 78 20 86 58 5 27 3 31 -24 41 -17 6 -34 6 -38 2
-13 -13 -38 5 -32 21 3 8 29 22 58 32 41 15 49 21 40 32 -15 18 -5 21 67 20
47 -1 60 1 56 12 -4 10 2 11 25 7 17 -4 32 -1 36 5 4 6 36 11 74 11 68 0 167
21 185 39 5 5 11 21 12 35 4 32 13 46 31 46 15 0 19 16 5 24 -5 3 7 22 25 42
42 44 42 58 4 92 -26 23 -44 62 -22 48 4 -2 8 14 7 36 0 23 -6 43 -13 46 -7 2
-10 8 -6 13 3 5 0 9 -5 9 -18 0 -12 18 7 23 10 3 5 5 -12 6 -16 0 -26 4 -23 7
4 4 -6 18 -21 30 l-27 24 25 0 c44 0 0 19 -50 22 -44 1 -44 1 -7 5 32 4 35 6
23 19 -17 16 -36 19 -36 4 0 -5 -9 -10 -20 -10 -11 0 -20 5 -20 10 0 6 9 10
19 10 11 0 23 5 26 10 6 10 -38 14 -99 10 -17 -1 -26 2 -22 8 12 20 -25 42
-72 43 -37 0 -43 2 -27 10 14 6 0 8 -47 5 -36 -3 -80 -1 -96 4 -17 4 -33 5
-37 2z m-199 -692 c23 0 33 -4 29 -11 -4 -6 -13 -8 -21 -5 -9 4 -14 -2 -15
-17 -1 -18 -2 -19 -6 -4 -3 12 -10 16 -20 13 -9 -4 -25 -4 -36 0 -20 6 -20 7
4 25 13 10 26 14 27 9 2 -6 19 -10 38 -10z m-100 -22 c1 -12 -2 -13 -21 -4
-16 7 -20 13 -12 18 17 11 30 5 33 -14z m304 -18 c0 -18 -19 -11 -30 11 -11
19 -10 20 9 9 12 -6 21 -15 21 -20z m-30 -16 c0 -2 -7 -4 -15 -4 -8 0 -15 4
-15 10 0 5 7 7 15 4 8 -4 15 -8 15 -10z m-403 0 c-3 -3 -12 -4 -19 -1 -8 3 -5
6 6 6 11 1 17 -2 13 -5z"/>
<path d="M3008 4703 c7 -3 16 -2 19 1 4 3 -2 6 -13 5 -11 0 -14 -3 -6 -6z"/>
<path d="M3550 4660 c0 -5 7 -7 15 -4 8 4 15 8 15 10 0 2 -7 4 -15 4 -8 0 -15
-4 -15 -10z"/>
<path d="M3775 4520 c27 -12 43 -12 25 0 -8 5 -22 9 -30 9 -10 0 -8 -3 5 -9z"/>
<path d="M4191 4224 c0 -11 3 -14 6 -6 3 7 2 16 -1 19 -3 4 -6 -2 -5 -13z"/>
<path d="M1022 4019 c2 -6 8 -10 13 -10 5 0 11 4 13 10 2 6 -4 11 -13 11 -9 0
-15 -5 -13 -11z"/>
<path d="M660 4009 c0 -9 7 -22 15 -29 8 -7 15 -17 15 -23 0 -12 60 -67 73
-67 4 0 17 -9 29 -20 12 -11 38 -22 57 -26 20 -3 49 -10 65 -15 16 -5 49 -9
73 -9 47 0 151 26 167 41 6 5 20 9 33 9 13 0 23 4 23 8 0 4 14 13 32 20 17 6
30 14 27 16 -8 8 -82 -12 -89 -25 -4 -6 -13 -8 -19 -5 -6 4 -11 3 -11 -2 0
-13 -53 -1 -65 15 -6 7 -46 18 -92 23 -45 6 -101 19 -125 30 -24 11 -52 20
-64 20 -11 0 -25 5 -32 12 -13 13 -33 19 -72 21 -14 1 -28 7 -32 12 -5 6 -8 3
-8 -6z"/>
<path d="M1570 3922 c0 -4 9 -13 20 -20 23 -14 26 -7 6 14 -16 15 -26 18 -26
6z"/>
<path d="M1576 3874 c9 -37 12 -41 20 -21 3 9 -1 24 -11 33 -15 15 -15 14 -9
-12z"/>
<path d="M1570 3780 c-6 -11 -16 -20 -23 -20 -12 0 -41 -36 -43 -55 -5 -40
-19 -78 -31 -82 -18 -7 -43 -67 -43 -104 0 -16 -9 -38 -19 -48 -11 -11 -21
-32 -22 -48 -2 -15 -14 -41 -27 -57 -12 -15 -20 -36 -18 -45 3 -9 1 -33 -3
-53 -11 -46 11 -54 28 -10 11 28 25 51 54 91 9 13 17 35 17 48 0 19 4 24 16
19 13 -5 15 -1 10 18 -5 19 3 32 35 65 23 23 45 41 50 41 5 0 9 6 9 13 0 7 14
23 31 36 18 13 29 30 27 40 -2 10 3 26 11 35 11 13 11 20 3 28 -9 9 -12 9 -12
0 0 -7 -5 -12 -11 -12 -6 0 -9 7 -5 15 7 20 -4 105 -15 105 -5 0 -13 -9 -19
-20z"/>
<path d="M1464 3370 c2 -19 6 -44 10 -55 6 -16 6 -17 -3 -5 -9 13 -11 12 -11
-6 0 -24 15 -39 47 -46 19 -5 22 -1 25 39 4 53 1 59 -34 68 -15 4 -29 14 -32
23 -3 10 -4 1 -2 -18z"/>
</g>
</svg>
